# AST/ASF file generated using VICON BodyLanguage
# -----------------------------------------------
:version 1.10
:name VICON
:units
  mass 1.0
  length 0.45
  angle deg
:documentation
   .ast/.asf automatically generated from VICON data using
   VICON BodyBuilder and BodyLanguage model FoxedUp or BRILLIANT.MOD
:root
   order TX TY TZ RX RY RZ
   axis XYZ
   position 0 0 0  
   orientation 0 0 0 
:bonedata
  begin
     id 1 
     name lhipjoint
     direction 0.710188 -0.616876 0.339259 
     length 2.5669 
     axis 0 0 0  XYZ
  end
  begin
     id 2 
     name lfemur
     direction 0.34202 -0.939693 0  
     length 7.12796  
     axis 0 0 20  XYZ
    dof rx ry rz
    limits (-160.0 20.0)
           (-70.0 70.0)
           (-60.0 70.0)
  end
  begin
     id 3 
     name ltibia
     direction 0.34202 -0.939693 0   
     length 7.58108   
     axis 0 0 20   XYZ
    dof rx
    limits (-10.0 170.0)
  end
  begin
     id 4 
     name lfoot
     direction 0.0669471 -0.183936 0.980656   
     length 2.17365   
     axis -90 7.62852e-016 20   XYZ
    dof rx rz
    limits (-45.0 90.0)
           (-70.0 20.0)
  end
  begin
     id 5 
     name ltoes
     direction 1.53508e-011 -4.21705e-011 1   
     length 1.09427   
     axis -90 7.62852e-016 20   XYZ
    dof rx
    limits (-90.0 20.0)
  end
  begin
     id 6 
     name rhipjoint
     direction -0.700191 -0.625589 0.34405   
     length 2.53115  
     axis 0 0 0  XYZ 
  end
  begin
     id 7 
     name rfemur
     direction -0.34202 -0.939693 0   
     length 7.33006   
     axis 0 0 -20   XYZ
    dof rx ry rz
    limits (-160.0 20.0)
           (-70.0 70.0)
           (-70.0 60.0)
  end
  begin
     id 8 
     name rtibia
     direction -0.34202 -0.939693 0   
     length 7.64926   
     axis 0 0 -20   XYZ
    dof rx
    limits (-10.0 170.0)
 end
 begin
     id 9 
     name rfoot
     direction -0.0688927 -0.189281 0.979503   
     length 2.20493  
     axis -90 -7.62852e-016 -20   XYZ
    dof rx rz
    limits (-45.0 90.0)
           (-20.0 70.0)
  end
  begin
     id 10 
     name rtoes
     direction -1.53567e-011 -4.21933e-011 1   
     length 1.10919   
     axis -90 -7.62852e-016 -20   XYZ
    dof rx
    limits (-90.0 20.0)
  end
  begin
     id 11 
     name lowerback
     direction -0.0167868 0.989873 -0.140959   
     length 2.14596   
     axis 0 0 0   XYZ
    dof rx ry rz
    limits (-20.0 45.0)
           (-30.0 30.0)
           (-30.0 30.0)
  end
  begin
     id 12 
     name upperback
     direction 0.0129109 0.998033 0.0613525   
     length 2.10457   
     axis 0 0 0   XYZ
    dof rx ry rz
    limits (-20.0 45.0)
           (-30.0 30.0)
           (-30.0 30.0)
  end
  begin
     id 13 
     name thorax
     direction 0.0177047 0.991119 0.131797   
     length 2.17652   
     axis 0 0 0   XYZ
    dof rx ry rz
    limits (-20.0 45.0)
           (-30.0 30.0)
           (-30.0 30.0)
  end
  begin
     id 14 
     name lowerneck
     direction -0.0336893 0.997548 0.0613464   
     length 1.8912   
     axis 0 0 0   XYZ
    dof rx ry rz
    limits (-20.0 45.0)
           (-30.0 30.0)
           (-30.0 30.0)
  end
  begin
     id 15 
     name upperneck
     direction 0.0435909 0.997179 -0.0611028   
     length 1.8829   
     axis 0 0 0   XYZ
    dof rx ry rz
    limits (-20.0 45.0)
           (-30.0 30.0)
           (-30.0 30.0)
  end
  begin
     id 16
     name head
     direction 0.0175076 0.999444 -0.0283782  
     length 1.93197  
     axis 0 0 0   XYZ
    dof rx ry rz
    limits (-20.0 45.0)
           (-30.0 30.0)
           (-30.0 30.0)
  end
  begin
     id 17 
     name lclavicle
     direction 0.919164 0.389875 0.0559876  
     length 3.60004  
     axis 0 0 0   XYZ
    dof ry rz
    limits (-20.0 10.0)
           (0.0 20.0)
  end
  begin
     id 18 
     name lhumerus
     direction 1 -4.48958e-011 6.89191e-027   
     length 5.43301   
     axis 180 -30 -90   XYZ
    dof rx ry rz
    limits (-60.0 90.0)
           (-90.0 90.0)
           (-90.0 90.0)
  end
  begin
     id 19
     name lradius
     direction 1 -4.4897e-011 3.24727e-027   
     length 3.15936   
     axis 180 -30 -90   XYZ
    dof rx
    limits (-10.0 170.0)
  end
  begin
     id 20
     name lwrist
     direction 1 -4.4897e-011 9.00228e-027   
     length 1.57968   
     axis -6.29373e-015 90 90   XYZ
    dof ry
    limits (-180.0 0.0)
 end
  begin
     id 21 
     name lhand
     direction 1 -4.48968e-011 1.80042e-026   
     length 0.712827   
     axis -1.14882e-014 90 90   XYZ
    dof rx rz
    limits (-90.0 90.0)
           (-45.0 45.0)
  end
  begin
     id 22 
     name lfingers
     direction 1 -4.49019e-011 3.60267e-026   
     length 0.574699   
     axis -2.29769e-014 90 90   XYZ
    dof rx
    limits (0.0 90.0)
  end
  begin
     id 23
     name lthumb
     direction 0.707107 -6.3498e-011 0.707107   
     length 0.825157   
     axis -90 45 5.37419e-014   XYZ
    dof rx rz
    limits (-45.0 45.0)
           (-45.0 45.0)
  end
  begin
     id 24 
     name rclavicle
     direction -0.890334 0.455305 -0.00132111   
     length 3.51494  
     axis 0 0 0   XYZ 
    dof ry rz
    limits (-10.0 20.0)
           (-20.0 0.0)
  end
  begin
     id 25 
     name rhumerus
     direction -1 -4.48967e-011 5.07175e-028  
     length 5.34194   
     axis 180 30 90   XYZ
    dof rx ry rz
    limits (-90.0 60.0)
           (-90.0 90.0)
           (-90.0 90.0)
  end
  begin
     id 26 
     name rradius
     direction -1 -4.48955e-011 3.30467e-027   
     length 3.19351   
     axis 180 30 90   XYZ
    dof rx
    limits (-10.0 170.0)
  end
  begin
     id 27 
     name rwrist
     direction -1 -4.48968e-011 9.00208e-027   
     length 1.59676   
     axis -6.29373e-015 -90 -90   XYZ
    dof ry
    limits (-180.0 0.0)
  end
  begin
     id 28
     name rhand
     direction -1 -4.49e-011 1.80099e-026   
     length 0.743862   
     axis -1.14882e-014 -90 -90   XYZ
    dof rx rz
    limits (-90.0 90.0)
           (-45.0 45.0)
  end
  begin
     id 29
     name rfingers
     direction -1 -4.49009e-011 3.6023e-026   
     length 0.599721   
     axis -2.29769e-014 -90 -90   XYZ
    dof rx
    limits (0.0 90.0)
  end
  begin
     id 30
     name rthumb
     direction -0.707107 -6.35025e-011 0.707107   
     length 0.861083   
     axis -90 -45 -5.37419e-014   XYZ
    dof rx rz
    limits (-45.0 45.0)
           (-45.0 45.0)
  end
:hierarchy
  begin
    root lhipjoint rhipjoint lowerback
    lhipjoint lfemur
    lfemur ltibia
    ltibia lfoot
    lfoot ltoes
    rhipjoint rfemur
    rfemur rtibia
    rtibia rfoot
    rfoot rtoes
    lowerback upperback
    upperback thorax
    thorax lowerneck lclavicle rclavicle
    lowerneck upperneck
    upperneck head
    lclavicle lhumerus
    lhumerus lradius
    lradius lwrist
    lwrist lhand lthumb
    lhand lfingers
    rclavicle rhumerus
    rhumerus rradius
    rradius rwrist
    rwrist rhand rthumb
    rhand rfingers
  end

#!OML:ASF H:\Martial Arts Walks\Project 1\Capture day 1\Session 1\male.ASF
:FULLY-SPECIFIED
:DEGREES
154
root -1.02887 14.3198 -22.9796 1.00111 28.0458 7.04783
lowerback 18.5737 3.80521 -13.8245
upperback 0.330008 1.97444 -1.04935
thorax -10.583 1.61905 6.1218
lowerneck 0.866587 -10.6627 -12.4589
upperneck 4.84009 -14.6864 10.0402
head 2.96035 -7.36501 4.45808
rclavicle 7.85448e-014 -1.78906e-014
rhumerus 3.65778 8.49658 -55.003
rradius 42.5995
rwrist 13.8064
rhand -13.1175 -12.3211
rfingers 7.12502
rthumb 12.9799 -41.8974
lclavicle 7.85448e-014 -1.78906e-014
lhumerus -67.0603 -17.3135 103.197
lradius 98.313
lwrist 34.585
lhand 2.14412 31.301
lfingers 7.12502
lthumb 27.6424 59.2901
rfemur -53.2115 -19.4123 2.80677
rtibia 55.2628
rfoot 4.9335 14.7672
rtoes 5.7776
lfemur -3.21151 5.36821 -14.3386
ltibia 58.7176
lfoot -29.8547 32.7891
ltoes -16.7565
155
root -1.03503 14.3568 -22.8886 1.37095 27.7968 6.93811
lowerback 18.2908 3.86726 -13.5695
upperback 0.221994 2.1547 -0.980922
thorax -10.578 1.69708 6.00812
lowerneck 0.902652 -10.774 -12.5687
upperneck 4.76508 -14.8472 10.2249
head 2.97252 -7.44413 4.52023
rclavicle -1.50828e-014 1.19271e-015
rhumerus 3.55856 7.99544 -55.2727
rradius 42.5742
rwrist 13.5338
rhand -13.8351 -12.9277
rfingers 7.12502
rthumb 12.2882 -42.5467
lclavicle -1.50828e-014 1.19271e-015
lhumerus -66.9484 -18.1179 103.31
lradius 98.1224
lwrist 33.8145
lhand 3.70909 31.0096
lfingers 7.12502
lthumb 29.1379 58.7495
rfemur -53.7476 -20.0008 3.59728
rtibia 55.5109
rfoot 4.85953 15.0859
rtoes 6.93859
lfemur -2.81656 5.61374 -14.0087
ltibia 57.6971
lfoot -29.5624 32.4848
ltoes -16.9593
156
root -1.0428 14.3935 -22.8007 1.7875 27.6509 6.86411
lowerback 18.0079 3.88781 -13.3823
upperback 0.105201 2.26477 -0.906138
thorax -10.57 1.74621 5.96051
lowerneck 0.933309 -10.8719 -12.676
upperneck 4.61587 -14.9833 10.3837
head 2.95885 -7.51142 4.57769
rclavicle -2.83268e-015 6.36111e-015
rhumerus 3.49641 7.5872 -55.4582
rradius 42.3784
rwrist 14.1111
rhand -14.383 -13.2272
rfingers 7.12502
rthumb 11.7598 -42.8771
lclavicle -2.83268e-015 6.36111e-015
lhumerus -67.0185 -18.832 103.458
lradius 97.9651
lwrist 32.5687
lhand 5.36153 30.4359
lfingers 7.12502
lthumb 30.7147 57.8914
rfemur -54.2607 -20.5446 4.28282
rtibia 55.7574
rfoot 4.75844 15.3094
rtoes 8.03102
lfemur -2.5082 5.78114 -13.7303
ltibia 56.6874
lfoot -29.2549 32.2039
ltoes -17.0902
157
root -1.05241 14.4281 -22.7157 2.23799 27.587 6.82354
lowerback 17.7303 3.86982 -13.2612
upperback -0.0147581 2.30803 -0.83353
thorax -10.5569 1.76729 5.96696
lowerneck 0.943899 -10.9557 -12.7512
upperneck 4.41347 -15.092 10.4963
head 2.92371 -7.56496 4.61916
rclavicle -2.99668e-014 -1.35174e-014
rhumerus 3.49587 7.31006 -55.5853
rradius 42.0409
rwrist 15.1331
rhand -14.7443 -13.3242
rfingers 7.12502
rthumb 11.4114 -42.9936
lclavicle -2.99668e-014 -1.35174e-014
lhumerus -67.2634 -19.4518 103.638
lradius 97.8675
lwrist 31.134
lhand 6.92111 29.761
lfingers 7.12502
lthumb 32.2006 56.9265
rfemur -54.7562 -21.0052 4.85722
rtibia 56.0208
rfoot 4.598 15.422
rtoes 8.96886
lfemur -2.27039 5.87298 -13.4979
ltibia 55.6956
lfoot -28.9461 31.9522
ltoes -17.1554
158
root -1.06368 14.4591 -22.6334 2.70697 27.5843 6.81669
lowerback 17.4653 3.81049 -13.2002
upperback -0.138061 2.28057 -0.770484
thorax -10.5419 1.75807 6.01614
lowerneck 0.949014 -11.0135 -12.7961
upperneck 4.17967 -15.1605 10.5705
head 2.87028 -7.59869 4.64863
rclavicle -4.86525e-014 -1.63003e-014
rhumerus 3.57417 7.21629 -55.6878
rradius 41.6096
rwrist 16.1618
rhand -14.9384 -13.3154
rfingers 7.12502
rthumb 11.2242 -42.9951
lclavicle -4.86525e-014 -1.63003e-014
lhumerus -67.6657 -19.9606 103.83
lradius 97.8575
lwrist 29.8528
lhand 8.3147 29.1262
lfingers 7.12502
lthumb 33.5262 56.0139
rfemur -55.2307 -21.37 5.31907
rtibia 56.3077
rfoot 4.35823 15.4426
rtoes 9.69995
lfemur -2.07684 5.88871 -13.3112
ltibia 54.7223
lfoot -28.6068 31.7597
ltoes -17.2234
